<?xml version="1.0" standalone="no"?>
<!DOCTYPE svg PUBLIC "-//W3C//DTD SVG 20010904//EN"
 "http://www.w3.org/TR/2001/REC-SVG-20010904/DTD/svg10.dtd">
<svg version="1.0" xmlns="http://www.w3.org/2000/svg"
 width="512.000000pt" height="512.000000pt" viewBox="0 0 512.000000 512.000000"
 preserveAspectRatio="xMidYMid meet">
<metadata>
Created by potrace 1.11, written by Peter Selinger 2001-2013
</metadata>
<g transform="translate(0.000000,512.000000) scale(0.100000,-0.100000)"
fill="#000000" stroke="none">
<path d="M656 5003 c-251 -53 -441 -223 -524 -468 l-27 -80 0 -1900 0 -1900
28 -80 c43 -121 82 -181 176 -276 99 -98 183 -146 315 -179 78 -20 112 -20
1930 -20 2075 0 1920 -5 2086 76 78 39 109 61 177 129 67 68 89 99 127 176 82
171 77 18 74 2114 l-3 1860 -27 80 c-84 249 -274 416 -530 469 -69 14 -271 16
-1905 15 -1578 -1 -1837 -3 -1897 -16z m2139 -1278 c350 -72 638 -281 816
-595 212 -374 194 -867 -45 -1224 -110 -165 -275 -316 -446 -409 -90 -50 -259
-104 -377 -122 -628 -95 -1220 323 -1347 949 -50 247 -17 512 94 745 61 126
120 212 219 314 191 198 429 318 707 356 93 13 281 6 379 -14z"/>
</g>
</svg>
